ISO-10303-21;
HEADER;

/* File generated by Alibre Version V23 */

FILE_DESCRIPTION(('HOOPS Exchange Step'),'2;1');

FILE_NAME('C:\\Users\\Burley\\AppData\\Local\\Temp\\Alibre Design\\export-BF0750B5-CDDD-4B0B-AD69-C0C30B332877.stp',
'2025-07-03T11:36:57-06:00',
('Burley'),
('Alibre'),
'HOOPS Exchange 2021.0',
'Alibre',
'Unknown authorisation');

FILE_SCHEMA( ('AP242_MANAGED_MODEL_BASED_3D_ENGINEERING_MIM_LF {1 0 10303 442 1 1 4 }') );

ENDSEC;

DATA;
#3=(NAMED_UNIT(*)PLANE_ANGLE_UNIT()SI_UNIT($,.RADIAN.));
#4=PLANE_ANGLE_MEASURE_WITH_UNIT(PLANE_ANGLE_MEASURE(0.0174532925),#3);
#5=(CONVERSION_BASED_UNIT('DEGREE',#4)NAMED_UNIT(#6)PLANE_ANGLE_UNIT());
#6=DIMENSIONAL_EXPONENTS(0.,0.,0.,0.,0.,0.,0.);
#7=(NAMED_UNIT(*)SI_UNIT($,.STERADIAN.)SOLID_ANGLE_UNIT());
#8=(LENGTH_UNIT()NAMED_UNIT(*)SI_UNIT(.MILLI.,.METRE.));
#9=UNCERTAINTY_MEASURE_WITH_UNIT(LENGTH_MEASURE(1.000000E-06),#8,'DISTANCE_ACCURACY_VALUE','Maximum Tolerance applied to model');
#10=(GEOMETRIC_REPRESENTATION_CONTEXT(3)GLOBAL_UNCERTAINTY_ASSIGNED_CONTEXT((#9))GLOBAL_UNIT_ASSIGNED_CONTEXT((#8,#5,#7))REPRESENTATION_CONTEXT('','3135_0'));
#12=CARTESIAN_POINT('',(0.,0.,0.));
#13=DIRECTION('',(0.,0.,1.));
#14=DIRECTION('',(1.,0.,0.));
#15=AXIS2_PLACEMENT_3D('',#12,#13,#14);
#27=CARTESIAN_POINT('',(9.,12.65,6.325));
#28=DIRECTION('',(0.,-1.,0.));
#29=DIRECTION('',(1.,0.,0.));
#30=AXIS2_PLACEMENT_3D('',#27,#28,#29);
#31=CYLINDRICAL_SURFACE('',#30,2.0669872);
#32=CARTESIAN_POINT('',(6.9330128,0.,6.325));
#33=VERTEX_POINT('',#32);
#34=CARTESIAN_POINT('',(6.9330128,12.65,6.325));
#35=VERTEX_POINT('',#34);
#36=CARTESIAN_POINT('',(6.9330128,0.,6.325));
#37=DIRECTION('',(-0.,1.,-0.));
#38=VECTOR('',#37,12.65);
#39=LINE('',#36,#38);
#40=EDGE_CURVE('',#33,#35,#39,.T.);
#41=ORIENTED_EDGE('',*,*,#40,.F.);
#42=CARTESIAN_POINT('',(9.,0.,6.325));
#43=DIRECTION('',(-0.,1.,0.));
#44=DIRECTION('',(1.,0.,0.));
#45=AXIS2_PLACEMENT_3D('',#42,#43,#44);
#46=CIRCLE('',#45,2.0669872);
#47=EDGE_CURVE('',#33,#33,#46,.T.);
#48=ORIENTED_EDGE('',*,*,#47,.F.);
#49=ORIENTED_EDGE('',*,*,#40,.T.);
#50=CARTESIAN_POINT('',(11.0669872,12.65,6.325));
#51=VERTEX_POINT('',#50);
#52=CARTESIAN_POINT('',(9.,12.65,6.325));
#53=DIRECTION('',(0.,-1.,0.));
#54=DIRECTION('',(1.,0.,0.));
#55=AXIS2_PLACEMENT_3D('',#52,#53,#54);
#56=CIRCLE('',#55,2.0669872);
#57=EDGE_CURVE('',#51,#35,#56,.T.);
#58=ORIENTED_EDGE('',*,*,#57,.F.);
#59=CARTESIAN_POINT('',(9.,12.65,6.325));
#60=DIRECTION('',(0.,-1.,0.));
#61=DIRECTION('',(1.,0.,0.));
#62=AXIS2_PLACEMENT_3D('',#59,#60,#61);
#63=CIRCLE('',#62,2.0669872);
#64=EDGE_CURVE('',#35,#51,#63,.T.);
#65=ORIENTED_EDGE('',*,*,#64,.F.);
#66=EDGE_LOOP('',(#41,#48,#49,#58,#65));
#67=FACE_BOUND('',#66,.T.);
#68=ADVANCED_FACE('',(#67),#31,.F.);
#69=CARTESIAN_POINT('',(49.,12.65,6.325));
#70=DIRECTION('',(0.,-1.,0.));
#71=DIRECTION('',(1.,0.,0.));
#72=AXIS2_PLACEMENT_3D('',#69,#70,#71);
#73=CYLINDRICAL_SURFACE('',#72,2.0669872);
#74=CARTESIAN_POINT('',(46.9330128,0.,6.325));
#75=VERTEX_POINT('',#74);
#76=CARTESIAN_POINT('',(46.9330128,12.65,6.325));
#77=VERTEX_POINT('',#76);
#78=CARTESIAN_POINT('',(46.9330128,0.,6.325));
#79=DIRECTION('',(-0.,1.,-0.));
#80=VECTOR('',#79,12.65);
#81=LINE('',#78,#80);
#82=EDGE_CURVE('',#75,#77,#81,.T.);
#83=ORIENTED_EDGE('',*,*,#82,.F.);
#84=CARTESIAN_POINT('',(49.,0.,6.325));
#85=DIRECTION('',(-0.,1.,0.));
#86=DIRECTION('',(1.,0.,0.));
#87=AXIS2_PLACEMENT_3D('',#84,#85,#86);
#88=CIRCLE('',#87,2.0669872);
#89=EDGE_CURVE('',#75,#75,#88,.T.);
#90=ORIENTED_EDGE('',*,*,#89,.F.);
#91=ORIENTED_EDGE('',*,*,#82,.T.);
#92=CARTESIAN_POINT('',(51.0669872,12.65,6.325));
#93=VERTEX_POINT('',#92);
#94=CARTESIAN_POINT('',(49.,12.65,6.325));
#95=DIRECTION('',(0.,-1.,0.));
#96=DIRECTION('',(1.,0.,0.));
#97=AXIS2_PLACEMENT_3D('',#94,#95,#96);
#98=CIRCLE('',#97,2.0669872);
#99=EDGE_CURVE('',#93,#77,#98,.T.);
#100=ORIENTED_EDGE('',*,*,#99,.F.);
#101=CARTESIAN_POINT('',(49.,12.65,6.325));
#102=DIRECTION('',(0.,-1.,0.));
#103=DIRECTION('',(1.,0.,0.));
#104=AXIS2_PLACEMENT_3D('',#101,#102,#103);
#105=CIRCLE('',#104,2.0669872);
#106=EDGE_CURVE('',#77,#93,#105,.T.);
#107=ORIENTED_EDGE('',*,*,#106,.F.);
#108=EDGE_LOOP('',(#83,#90,#91,#100,#107));
#109=FACE_BOUND('',#108,.T.);
#110=ADVANCED_FACE('',(#109),#73,.F.);
#111=CARTESIAN_POINT('',(55.,0.1,12.55));
#112=DIRECTION('',(0.577350269,-0.577350269,0.577350269));
#113=DIRECTION('',(0.707106781,-0.,-0.707106781));
#114=AXIS2_PLACEMENT_3D('',#111,#112,#113);
#115=PLANE('',#114);
#116=CARTESIAN_POINT('',(54.9,0.,12.55));
#117=VERTEX_POINT('',#116);
#118=CARTESIAN_POINT('',(54.9,0.1,12.65));
#119=VERTEX_POINT('',#118);
#120=CARTESIAN_POINT('',(54.9,0.,12.55));
#121=DIRECTION('',(0.,0.707106781,0.707106781));
#122=VECTOR('',#121,0.141421356);
#123=LINE('',#120,#122);
#124=EDGE_CURVE('',#117,#119,#123,.T.);
#125=ORIENTED_EDGE('',*,*,#124,.F.);
#126=CARTESIAN_POINT('',(55.,0.1,12.55));
#127=VERTEX_POINT('',#126);
#128=CARTESIAN_POINT('',(55.,0.1,12.55));
#129=DIRECTION('',(-0.707106781,-0.707106781,0.));
#130=VECTOR('',#129,1.414213562);
#131=LINE('',#128,#130);
#132=EDGE_CURVE('',#127,#117,#131,.T.);
#133=ORIENTED_EDGE('',*,*,#132,.F.);
#134=CARTESIAN_POINT('',(54.9,0.1,12.65));
#135=DIRECTION('',(0.707106781,0.,-0.707106781));
#136=VECTOR('',#135,1.414213562);
#137=LINE('',#134,#136);
#138=EDGE_CURVE('',#119,#127,#137,.T.);
#139=ORIENTED_EDGE('',*,*,#138,.F.);
#140=EDGE_LOOP('',(#125,#133,#139));
#141=FACE_BOUND('',#140,.T.);
#142=ADVANCED_FACE('',(#141),#115,.T.);
#143=CARTESIAN_POINT('',(0.1,0.,12.55));
#144=DIRECTION('',(-0.577350269,-0.577350269,0.577350269));
#145=DIRECTION('',(0.707106781,0.,0.707106781));
#146=AXIS2_PLACEMENT_3D('',#143,#144,#145);
#147=PLANE('',#146);
#148=CARTESIAN_POINT('',(0.,0.1,12.55));
#149=VERTEX_POINT('',#148);
#150=CARTESIAN_POINT('',(0.1,0.1,12.65));
#151=VERTEX_POINT('',#150);
#152=CARTESIAN_POINT('',(0.,0.1,12.55));
#153=DIRECTION('',(0.707106781,0.,0.707106781));
#154=VECTOR('',#153,0.141421356);
#155=LINE('',#152,#154);
#156=EDGE_CURVE('',#149,#151,#155,.T.);
#157=ORIENTED_EDGE('',*,*,#156,.F.);
#158=CARTESIAN_POINT('',(0.1,0.,12.55));
#159=VERTEX_POINT('',#158);
#160=CARTESIAN_POINT('',(0.1,0.,12.55));
#161=DIRECTION('',(-0.707106781,0.707106781,0.));
#162=VECTOR('',#161,1.414213562);
#163=LINE('',#160,#162);
#164=EDGE_CURVE('',#159,#149,#163,.T.);
#165=ORIENTED_EDGE('',*,*,#164,.F.);
#166=CARTESIAN_POINT('',(0.1,0.1,12.65));
#167=DIRECTION('',(0.,-0.707106781,-0.707106781));
#168=VECTOR('',#167,0.141421356);
#169=LINE('',#166,#168);
#170=EDGE_CURVE('',#151,#159,#169,.T.);
#171=ORIENTED_EDGE('',*,*,#170,.F.);
#172=EDGE_LOOP('',(#157,#165,#171));
#173=FACE_BOUND('',#172,.T.);
#174=ADVANCED_FACE('',(#173),#147,.T.);
#175=CARTESIAN_POINT('',(55.,0.1,0.1));
#176=DIRECTION('',(0.577350269,-0.577350269,-0.577350269));
#177=DIRECTION('',(-0.707106781,0.,-0.707106781));
#178=AXIS2_PLACEMENT_3D('',#175,#176,#177);
#179=PLANE('',#178);
#180=CARTESIAN_POINT('',(54.9,0.1,0.));
#181=VERTEX_POINT('',#180);
#182=CARTESIAN_POINT('',(54.9,0.,0.1));
#183=VERTEX_POINT('',#182);
#184=CARTESIAN_POINT('',(54.9,0.1,0.));
#185=DIRECTION('',(0.,-0.707106781,0.707106781));
#186=VECTOR('',#185,0.141421356);
#187=LINE('',#184,#186);
#188=EDGE_CURVE('',#181,#183,#187,.T.);
#189=ORIENTED_EDGE('',*,*,#188,.F.);
#190=CARTESIAN_POINT('',(55.,0.1,0.1));
#191=VERTEX_POINT('',#190);
#192=CARTESIAN_POINT('',(55.,0.1,0.1));
#193=DIRECTION('',(-0.707106781,0.,-0.707106781));
#194=VECTOR('',#193,1.414213562);
#195=LINE('',#192,#194);
#196=EDGE_CURVE('',#191,#181,#195,.T.);
#197=ORIENTED_EDGE('',*,*,#196,.F.);
#198=CARTESIAN_POINT('',(54.9,0.,0.1));
#199=DIRECTION('',(0.707106781,0.707106781,0.));
#200=VECTOR('',#199,0.141421356);
#201=LINE('',#198,#200);
#202=EDGE_CURVE('',#183,#191,#201,.T.);
#203=ORIENTED_EDGE('',*,*,#202,.F.);
#204=EDGE_LOOP('',(#189,#197,#203));
#205=FACE_BOUND('',#204,.T.);
#206=ADVANCED_FACE('',(#205),#179,.T.);
#207=CARTESIAN_POINT('',(54.95,6.325,0.05));
#208=DIRECTION('',(0.707106781,0.,-0.707106781));
#209=DIRECTION('',(-0.707106781,0.,-0.707106781));
#210=AXIS2_PLACEMENT_3D('',#207,#208,#209);
#211=PLANE('',#210);
#212=CARTESIAN_POINT('',(54.941421356,12.591421356,0.041421356));
#213=VERTEX_POINT('',#212);
#214=CARTESIAN_POINT('',(55.,12.45,0.1));
#215=VERTEX_POINT('',#214);
#216=CARTESIAN_POINT('',(46.167938266,33.772483222,-8.732061734));
#217=DIRECTION('',(0.357406744,-0.862856209,0.357406744));
#218=VECTOR('',#217,1.638991001);
#219=LINE('',#216,#218);
#220=EDGE_CURVE('',#213,#215,#219,.T.);
#221=ORIENTED_EDGE('',*,*,#220,.T.);
#222=CARTESIAN_POINT('',(55.,67.575,0.1));
#223=DIRECTION('',(0.,-1.,0.));
#224=VECTOR('',#223,123.5);
#225=LINE('',#222,#224);
#226=EDGE_CURVE('',#215,#191,#225,.T.);
#227=ORIENTED_EDGE('',*,*,#226,.T.);
#228=ORIENTED_EDGE('',*,*,#196,.T.);
#229=CARTESIAN_POINT('',(54.9,12.55,0.));
#230=VERTEX_POINT('',#229);
#231=CARTESIAN_POINT('',(54.9,-55.925,0.));
#232=DIRECTION('',(0.,1.,0.));
#233=VECTOR('',#232,124.5);
#234=LINE('',#231,#233);
#235=EDGE_CURVE('',#181,#230,#234,.T.);
#236=ORIENTED_EDGE('',*,*,#235,.T.);
#237=CARTESIAN_POINT('',(105.0375,62.6875,50.1375));
#238=DIRECTION('',(0.577350269,0.577350269,0.577350269));
#239=VECTOR('',#238,0.717438935);
#240=LINE('',#237,#239);
#241=EDGE_CURVE('',#230,#213,#240,.T.);
#242=ORIENTED_EDGE('',*,*,#241,.T.);
#243=EDGE_LOOP('',(#221,#227,#228,#236,#242));
#244=FACE_BOUND('',#243,.T.);
#245=ADVANCED_FACE('',(#244),#211,.T.);
#246=CARTESIAN_POINT('',(54.964644661,12.535355339,0.));
#247=DIRECTION('',(0.923879533,0.382683432,0.));
#248=DIRECTION('',(0.,0.,-1.));
#249=AXIS2_PLACEMENT_3D('',#246,#247,#248);
#250=PLANE('',#249);
#251=CARTESIAN_POINT('',(54.941421356,12.591421356,12.608578644));
#252=VERTEX_POINT('',#251);
#253=CARTESIAN_POINT('',(55.,12.45,12.55));
#254=VERTEX_POINT('',#253);
#255=CARTESIAN_POINT('',(38.896362623,51.327619759,28.653637377));
#256=DIRECTION('',(0.357406744,-0.862856209,-0.357406744));
#257=VECTOR('',#256,1.638991001);
#258=LINE('',#255,#257);
#259=EDGE_CURVE('',#252,#254,#258,.T.);
#260=ORIENTED_EDGE('',*,*,#259,.T.);
#261=CARTESIAN_POINT('',(55.,12.45,125.5));
#262=DIRECTION('',(0.,0.,-1.));
#263=VECTOR('',#262,124.5);
#264=LINE('',#261,#263);
#265=EDGE_CURVE('',#254,#215,#264,.T.);
#266=ORIENTED_EDGE('',*,*,#265,.T.);
#267=ORIENTED_EDGE('',*,*,#220,.F.);
#268=CARTESIAN_POINT('',(54.929289322,12.620710678,0.070710678));
#269=VERTEX_POINT('',#268);
#270=CARTESIAN_POINT('',(64.620697572,-10.776418559,-23.326418559));
#271=DIRECTION('',(-0.281084638,0.678598345,0.678598345));
#272=VECTOR('',#271,0.431614992);
#273=LINE('',#270,#272);
#274=EDGE_CURVE('',#213,#269,#273,.T.);
#275=ORIENTED_EDGE('',*,*,#274,.T.);
#276=CARTESIAN_POINT('',(54.929289322,12.620710678,12.579289322));
#277=VERTEX_POINT('',#276);
#278=CARTESIAN_POINT('',(54.929289322,12.620710678,0.707106781));
#279=DIRECTION('',(0.,0.,1.));
#280=VECTOR('',#279,125.085786438);
#281=LINE('',#278,#280);
#282=EDGE_CURVE('',#269,#277,#281,.T.);
#283=ORIENTED_EDGE('',*,*,#282,.T.);
#284=CARTESIAN_POINT('',(75.357454941,-36.697243815,61.897243815));
#285=DIRECTION('',(0.281084638,-0.678598345,0.678598345));
#286=VECTOR('',#285,0.431614992);
#287=LINE('',#284,#286);
#288=EDGE_CURVE('',#277,#252,#287,.T.);
#289=ORIENTED_EDGE('',*,*,#288,.T.);
#290=EDGE_LOOP('',(#260,#266,#267,#275,#283,#289));
#291=FACE_BOUND('',#290,.T.);
#292=ADVANCED_FACE('',(#291),#250,.T.);
#293=CARTESIAN_POINT('',(54.95,6.325,12.6));
#294=DIRECTION('',(0.707106781,0.,0.707106781));
#295=DIRECTION('',(0.707106781,0.,-0.707106781));
#296=AXIS2_PLACEMENT_3D('',#293,#294,#295);
#297=PLANE('',#296);
#298=CARTESIAN_POINT('',(54.9,12.55,12.65));
#299=VERTEX_POINT('',#298);
#300=CARTESIAN_POINT('',(105.451713562,63.101713562,-37.901713562));
#301=DIRECTION('',(-0.577350269,-0.577350269,0.577350269));
#302=VECTOR('',#301,0.717438935);
#303=LINE('',#300,#302);
#304=EDGE_CURVE('',#252,#299,#303,.T.);
#305=ORIENTED_EDGE('',*,*,#304,.T.);
#306=CARTESIAN_POINT('',(54.9,68.575,12.65));
#307=DIRECTION('',(0.,-1.,0.));
#308=VECTOR('',#307,124.5);
#309=LINE('',#306,#308);
#310=EDGE_CURVE('',#299,#119,#309,.T.);
#311=ORIENTED_EDGE('',*,*,#310,.T.);
#312=ORIENTED_EDGE('',*,*,#138,.T.);
#313=CARTESIAN_POINT('',(55.,-55.925,12.55));
#314=DIRECTION('',(0.,1.,0.));
#315=VECTOR('',#314,123.5);
#316=LINE('',#313,#315);
#317=EDGE_CURVE('',#127,#254,#316,.T.);
#318=ORIENTED_EDGE('',*,*,#317,.T.);
#319=ORIENTED_EDGE('',*,*,#259,.F.);
#320=EDGE_LOOP('',(#305,#311,#312,#318,#319));
#321=FACE_BOUND('',#320,.T.);
#322=ADVANCED_FACE('',(#321),#297,.T.);
#323=CARTESIAN_POINT('',(54.95,0.05,0.));
#324=DIRECTION('',(0.707106781,-0.707106781,0.));
#325=DIRECTION('',(0.,0.,-1.));
#326=AXIS2_PLACEMENT_3D('',#323,#324,#325);
#327=PLANE('',#326);
#328=ORIENTED_EDGE('',*,*,#132,.T.);
#329=CARTESIAN_POINT('',(54.9,0.,125.5));
#330=DIRECTION('',(0.,0.,-1.));
#331=VECTOR('',#330,124.5);
#332=LINE('',#329,#331);
#333=EDGE_CURVE('',#117,#183,#332,.T.);
#334=ORIENTED_EDGE('',*,*,#333,.T.);
#335=ORIENTED_EDGE('',*,*,#202,.T.);
#336=CARTESIAN_POINT('',(55.,0.1,1.));
#337=DIRECTION('',(0.,0.,1.));
#338=VECTOR('',#337,124.5);
#339=LINE('',#336,#338);
#340=EDGE_CURVE('',#191,#127,#339,.T.);
#341=ORIENTED_EDGE('',*,*,#340,.T.);
#342=EDGE_LOOP('',(#328,#334,#335,#341));
#343=FACE_BOUND('',#342,.T.);
#344=ADVANCED_FACE('',(#343),#327,.T.);
#345=CARTESIAN_POINT('',(0.1,0.1,0.));
#346=DIRECTION('',(-0.577350269,-0.577350269,-0.577350269));
#347=DIRECTION('',(-0.707106781,0.,0.707106781));
#348=AXIS2_PLACEMENT_3D('',#345,#346,#347);
#349=PLANE('',#348);
#350=CARTESIAN_POINT('',(0.,0.1,0.1));
#351=VERTEX_POINT('',#350);
#352=CARTESIAN_POINT('',(0.1,0.,0.1));
#353=VERTEX_POINT('',#352);
#354=CARTESIAN_POINT('',(0.,0.1,0.1));
#355=DIRECTION('',(0.707106781,-0.707106781,0.));
#356=VECTOR('',#355,1.414213562);
#357=LINE('',#354,#356);
#358=EDGE_CURVE('',#351,#353,#357,.T.);
#359=ORIENTED_EDGE('',*,*,#358,.F.);
#360=CARTESIAN_POINT('',(0.1,0.1,0.));
#361=VERTEX_POINT('',#360);
#362=CARTESIAN_POINT('',(0.1,0.1,-0.));
#363=DIRECTION('',(-0.707106781,0.,0.707106781));
#364=VECTOR('',#363,0.141421356);
#365=LINE('',#362,#364);
#366=EDGE_CURVE('',#361,#351,#365,.T.);
#367=ORIENTED_EDGE('',*,*,#366,.F.);
#368=CARTESIAN_POINT('',(0.1,0.,0.1));
#369=DIRECTION('',(0.,0.707106781,-0.707106781));
#370=VECTOR('',#369,0.141421356);
#371=LINE('',#368,#370);
#372=EDGE_CURVE('',#353,#361,#371,.T.);
#373=ORIENTED_EDGE('',*,*,#372,.F.);
#374=EDGE_LOOP('',(#359,#367,#373));
#375=FACE_BOUND('',#374,.T.);
#376=ADVANCED_FACE('',(#375),#349,.T.);
#377=CARTESIAN_POINT('',(0.05,6.325,12.6));
#378=DIRECTION('',(-0.707106781,0.,0.707106781));
#379=DIRECTION('',(0.707106781,0.,0.707106781));
#380=AXIS2_PLACEMENT_3D('',#377,#378,#379);
#381=PLANE('',#380);
#382=CARTESIAN_POINT('',(0.058578644,12.591421356,12.608578644));
#383=VERTEX_POINT('',#382);
#384=CARTESIAN_POINT('',(0.,12.45,12.55));
#385=VERTEX_POINT('',#384);
#386=CARTESIAN_POINT('',(16.103637377,51.327619759,28.653637377));
#387=DIRECTION('',(-0.357406744,-0.862856209,-0.357406744));
#388=VECTOR('',#387,1.638991001);
#389=LINE('',#386,#388);
#390=EDGE_CURVE('',#383,#385,#389,.T.);
#391=ORIENTED_EDGE('',*,*,#390,.T.);
#392=CARTESIAN_POINT('',(0.,67.575,12.55));
#393=DIRECTION('',(-0.,-1.,0.));
#394=VECTOR('',#393,123.5);
#395=LINE('',#392,#394);
#396=EDGE_CURVE('',#385,#149,#395,.T.);
#397=ORIENTED_EDGE('',*,*,#396,.T.);
#398=ORIENTED_EDGE('',*,*,#156,.T.);
#399=CARTESIAN_POINT('',(0.1,12.55,12.65));
#400=VERTEX_POINT('',#399);
#401=CARTESIAN_POINT('',(0.1,-55.925,12.65));
#402=DIRECTION('',(0.,1.,0.));
#403=VECTOR('',#402,124.5);
#404=LINE('',#401,#403);
#405=EDGE_CURVE('',#151,#400,#404,.T.);
#406=ORIENTED_EDGE('',*,*,#405,.T.);
#407=CARTESIAN_POINT('',(-50.0375,62.6875,-37.4875));
#408=DIRECTION('',(-0.577350269,0.577350269,-0.577350269));
#409=VECTOR('',#408,0.717438935);
#410=LINE('',#407,#409);
#411=EDGE_CURVE('',#400,#383,#410,.T.);
#412=ORIENTED_EDGE('',*,*,#411,.T.);
#413=EDGE_LOOP('',(#391,#397,#398,#406,#412));
#414=FACE_BOUND('',#413,.T.);
#415=ADVANCED_FACE('',(#414),#381,.T.);
#416=CARTESIAN_POINT('',(0.035355339,12.535355339,0.));
#417=DIRECTION('',(-0.923879533,0.382683432,0.));
#418=DIRECTION('',(0.,0.,1.));
#419=AXIS2_PLACEMENT_3D('',#416,#417,#418);
#420=PLANE('',#419);
#421=CARTESIAN_POINT('',(0.070710678,12.620710678,12.579289322));
#422=VERTEX_POINT('',#421);
#423=CARTESIAN_POINT('',(-20.478775285,-36.990137034,62.190137034));
#424=DIRECTION('',(0.281084638,0.678598345,-0.678598345));
#425=VECTOR('',#424,0.431614992);
#426=LINE('',#423,#425);
#427=EDGE_CURVE('',#383,#422,#426,.T.);
#428=ORIENTED_EDGE('',*,*,#427,.T.);
#429=CARTESIAN_POINT('',(0.070710678,12.620710678,0.070710678));
#430=VERTEX_POINT('',#429);
#431=CARTESIAN_POINT('',(0.070710678,12.620710678,125.792893219));
#432=DIRECTION('',(0.,0.,-1.));
#433=VECTOR('',#432,125.085786438);
#434=LINE('',#431,#433);
#435=EDGE_CURVE('',#422,#430,#434,.T.);
#436=ORIENTED_EDGE('',*,*,#435,.T.);
#437=CARTESIAN_POINT('',(0.058578644,12.591421356,0.041421356));
#438=VERTEX_POINT('',#437);
#439=CARTESIAN_POINT('',(-9.499377229,-10.48352534,-23.03352534));
#440=DIRECTION('',(-0.281084638,-0.678598345,-0.678598345));
#441=VECTOR('',#440,0.431614992);
#442=LINE('',#439,#441);
#443=EDGE_CURVE('',#430,#438,#442,.T.);
#444=ORIENTED_EDGE('',*,*,#443,.T.);
#445=CARTESIAN_POINT('',(0.,12.45,0.1));
#446=VERTEX_POINT('',#445);
#447=CARTESIAN_POINT('',(8.832061734,33.772483222,-8.732061734));
#448=DIRECTION('',(-0.357406744,-0.862856209,0.357406744));
#449=VECTOR('',#448,1.638991001);
#450=LINE('',#447,#449);
#451=EDGE_CURVE('',#438,#446,#450,.T.);
#452=ORIENTED_EDGE('',*,*,#451,.T.);
#453=CARTESIAN_POINT('',(0.,12.45,1.));
#454=DIRECTION('',(0.,0.,1.));
#455=VECTOR('',#454,124.5);
#456=LINE('',#453,#455);
#457=EDGE_CURVE('',#446,#385,#456,.T.);
#458=ORIENTED_EDGE('',*,*,#457,.T.);
#459=ORIENTED_EDGE('',*,*,#390,.F.);
#460=EDGE_LOOP('',(#428,#436,#444,#452,#458,#459));
#461=FACE_BOUND('',#460,.T.);
#462=ADVANCED_FACE('',(#461),#420,.T.);
#463=CARTESIAN_POINT('',(0.05,6.325,0.05));
#464=DIRECTION('',(-0.707106781,0.,-0.707106781));
#465=DIRECTION('',(-0.707106781,-0.,0.707106781));
#466=AXIS2_PLACEMENT_3D('',#463,#464,#465);
#467=PLANE('',#466);
#468=CARTESIAN_POINT('',(0.1,12.55,0.));
#469=VERTEX_POINT('',#468);
#470=CARTESIAN_POINT('',(-50.451713562,63.101713562,50.551713562));
#471=DIRECTION('',(0.577350269,-0.577350269,-0.577350269));
#472=VECTOR('',#471,0.717438935);
#473=LINE('',#470,#472);
#474=EDGE_CURVE('',#438,#469,#473,.T.);
#475=ORIENTED_EDGE('',*,*,#474,.T.);
#476=CARTESIAN_POINT('',(0.1,68.575,0.));
#477=DIRECTION('',(-0.,-1.,0.));
#478=VECTOR('',#477,124.5);
#479=LINE('',#476,#478);
#480=EDGE_CURVE('',#469,#361,#479,.T.);
#481=ORIENTED_EDGE('',*,*,#480,.T.);
#482=ORIENTED_EDGE('',*,*,#366,.T.);
#483=CARTESIAN_POINT('',(-0.,-55.925,0.1));
#484=DIRECTION('',(0.,1.,0.));
#485=VECTOR('',#484,123.5);
#486=LINE('',#483,#485);
#487=EDGE_CURVE('',#351,#446,#486,.T.);
#488=ORIENTED_EDGE('',*,*,#487,.T.);
#489=ORIENTED_EDGE('',*,*,#451,.F.);
#490=EDGE_LOOP('',(#475,#481,#482,#488,#489));
#491=FACE_BOUND('',#490,.T.);
#492=ADVANCED_FACE('',(#491),#467,.T.);
#493=CARTESIAN_POINT('',(27.5,0.05,0.05));
#494=DIRECTION('',(0.,-0.707106781,-0.707106781));
#495=DIRECTION('',(-1.,0.,0.));
#496=AXIS2_PLACEMENT_3D('',#493,#494,#495);
#497=PLANE('',#496);
#498=ORIENTED_EDGE('',*,*,#372,.T.);
#499=CARTESIAN_POINT('',(-246.5,0.1,0.));
#500=DIRECTION('',(1.,0.,-0.));
#501=VECTOR('',#500,548.);
#502=LINE('',#499,#501);
#503=EDGE_CURVE('',#361,#181,#502,.T.);
#504=ORIENTED_EDGE('',*,*,#503,.T.);
#505=ORIENTED_EDGE('',*,*,#188,.T.);
#506=CARTESIAN_POINT('',(301.5,0.,0.1));
#507=DIRECTION('',(-1.,0.,0.));
#508=VECTOR('',#507,548.);
#509=LINE('',#506,#508);
#510=EDGE_CURVE('',#183,#353,#509,.T.);
#511=ORIENTED_EDGE('',*,*,#510,.T.);
#512=EDGE_LOOP('',(#498,#504,#505,#511));
#513=FACE_BOUND('',#512,.T.);
#514=ADVANCED_FACE('',(#513),#497,.T.);
#515=CARTESIAN_POINT('',(0.05,0.05,0.));
#516=DIRECTION('',(-0.707106781,-0.707106781,0.));
#517=DIRECTION('',(0.,0.,1.));
#518=AXIS2_PLACEMENT_3D('',#515,#516,#517);
#519=PLANE('',#518);
#520=ORIENTED_EDGE('',*,*,#164,.T.);
#521=CARTESIAN_POINT('',(0.,0.1,125.5));
#522=DIRECTION('',(0.,0.,-1.));
#523=VECTOR('',#522,124.5);
#524=LINE('',#521,#523);
#525=EDGE_CURVE('',#149,#351,#524,.T.);
#526=ORIENTED_EDGE('',*,*,#525,.T.);
#527=ORIENTED_EDGE('',*,*,#358,.T.);
#528=CARTESIAN_POINT('',(0.1,0.,1.));
#529=DIRECTION('',(0.,0.,1.));
#530=VECTOR('',#529,124.5);
#531=LINE('',#528,#530);
#532=EDGE_CURVE('',#353,#159,#531,.T.);
#533=ORIENTED_EDGE('',*,*,#532,.T.);
#534=EDGE_LOOP('',(#520,#526,#527,#533));
#535=FACE_BOUND('',#534,.T.);
#536=ADVANCED_FACE('',(#535),#519,.T.);
#537=CARTESIAN_POINT('',(27.5,0.05,12.6));
#538=DIRECTION('',(0.,-0.707106781,0.707106781));
#539=DIRECTION('',(1.,0.,0.));
#540=AXIS2_PLACEMENT_3D('',#537,#538,#539);
#541=PLANE('',#540);
#542=ORIENTED_EDGE('',*,*,#170,.T.);
#543=CARTESIAN_POINT('',(-246.5,0.,12.55));
#544=DIRECTION('',(1.,0.,-0.));
#545=VECTOR('',#544,548.);
#546=LINE('',#543,#545);
#547=EDGE_CURVE('',#159,#117,#546,.T.);
#548=ORIENTED_EDGE('',*,*,#547,.T.);
#549=ORIENTED_EDGE('',*,*,#124,.T.);
#550=CARTESIAN_POINT('',(301.5,0.1,12.65));
#551=DIRECTION('',(-1.,0.,0.));
#552=VECTOR('',#551,548.);
#553=LINE('',#550,#552);
#554=EDGE_CURVE('',#119,#151,#553,.T.);
#555=ORIENTED_EDGE('',*,*,#554,.T.);
#556=EDGE_LOOP('',(#542,#548,#549,#555));
#557=FACE_BOUND('',#556,.T.);
#558=ADVANCED_FACE('',(#557),#541,.T.);
#559=CARTESIAN_POINT('',(27.5,6.325,0.));
#560=DIRECTION('',(0.,0.,1.));
#561=DIRECTION('',(1.,0.,0.));
#562=AXIS2_PLACEMENT_3D('',#559,#560,#561);
#563=PLANE('',#562);
#564=CARTESIAN_POINT('',(26.571030641,7.502716404,0.));
#565=VERTEX_POINT('',#564);
#566=CARTESIAN_POINT('',(21.,6.325,0.));
#567=VERTEX_POINT('',#566);
#568=CARTESIAN_POINT('',(23.91,6.325,0.));
#569=DIRECTION('',(0.,0.,1.));
#570=DIRECTION('',(1.,0.,-0.));
#571=AXIS2_PLACEMENT_3D('',#568,#569,#570);
#572=CIRCLE('',#571,2.91);
#573=EDGE_CURVE('',#565,#567,#572,.T.);
#574=ORIENTED_EDGE('',*,*,#573,.T.);
#575=CARTESIAN_POINT('',(26.571030641,5.147283596,0.));
#576=VERTEX_POINT('',#575);
#577=CARTESIAN_POINT('',(23.91,6.325,0.));
#578=DIRECTION('',(0.,0.,1.));
#579=DIRECTION('',(1.,0.,-0.));
#580=AXIS2_PLACEMENT_3D('',#577,#578,#579);
#581=CIRCLE('',#580,2.91);
#582=EDGE_CURVE('',#567,#576,#581,.T.);
#583=ORIENTED_EDGE('',*,*,#582,.T.);
#584=CARTESIAN_POINT('',(28.428969359,5.147283596,0.));
#585=VERTEX_POINT('',#584);
#586=CARTESIAN_POINT('',(27.5,6.325,0.));
#587=DIRECTION('',(0.,0.,1.));
#588=DIRECTION('',(1.,0.,-0.));
#589=AXIS2_PLACEMENT_3D('',#586,#587,#588);
#590=CIRCLE('',#589,1.5);
#591=EDGE_CURVE('',#576,#585,#590,.T.);
#592=ORIENTED_EDGE('',*,*,#591,.T.);
#593=CARTESIAN_POINT('',(28.428969359,7.502716404,0.));
#594=VERTEX_POINT('',#593);
#595=CARTESIAN_POINT('',(31.09,6.325,0.));
#596=DIRECTION('',(0.,0.,1.));
#597=DIRECTION('',(1.,0.,-0.));
#598=AXIS2_PLACEMENT_3D('',#595,#596,#597);
#599=CIRCLE('',#598,2.91);
#600=EDGE_CURVE('',#585,#594,#599,.T.);
#601=ORIENTED_EDGE('',*,*,#600,.T.);
#602=CARTESIAN_POINT('',(27.5,6.325,0.));
#603=DIRECTION('',(0.,0.,1.));
#604=DIRECTION('',(1.,0.,-0.));
#605=AXIS2_PLACEMENT_3D('',#602,#603,#604);
#606=CIRCLE('',#605,1.5);
#607=EDGE_CURVE('',#594,#565,#606,.T.);
#608=ORIENTED_EDGE('',*,*,#607,.T.);
#609=EDGE_LOOP('',(#574,#583,#592,#601,#608));
#610=FACE_BOUND('',#609,.T.);
#611=ORIENTED_EDGE('',*,*,#235,.F.);
#612=ORIENTED_EDGE('',*,*,#503,.F.);
#613=ORIENTED_EDGE('',*,*,#480,.F.);
#614=CARTESIAN_POINT('',(301.5,12.55,0.));
#615=DIRECTION('',(-1.,0.,0.));
#616=VECTOR('',#615,548.);
#617=LINE('',#614,#616);
#618=EDGE_CURVE('',#230,#469,#617,.T.);
#619=ORIENTED_EDGE('',*,*,#618,.F.);
#620=EDGE_LOOP('',(#611,#612,#613,#619));
#621=FACE_BOUND('',#620,.T.);
#622=ADVANCED_FACE('',(#610,#621),#563,.F.);
#623=CARTESIAN_POINT('',(27.5,12.6,0.05));
#624=DIRECTION('',(0.,0.707106781,-0.707106781));
#625=DIRECTION('',(-1.,0.,0.));
#626=AXIS2_PLACEMENT_3D('',#623,#624,#625);
#627=PLANE('',#626);
#628=ORIENTED_EDGE('',*,*,#274,.F.);
#629=ORIENTED_EDGE('',*,*,#241,.F.);
#630=ORIENTED_EDGE('',*,*,#618,.T.);
#631=ORIENTED_EDGE('',*,*,#474,.F.);
#632=ORIENTED_EDGE('',*,*,#443,.F.);
#633=CARTESIAN_POINT('',(0.1,12.65,0.1));
#634=VERTEX_POINT('',#633);
#635=CARTESIAN_POINT('',(0.1,12.65,0.1));
#636=DIRECTION('',(-0.577350269,-0.577350269,-0.577350269));
#637=VECTOR('',#636,0.507305936);
#638=LINE('',#635,#637);
#639=EDGE_CURVE('',#634,#430,#638,.T.);
#640=ORIENTED_EDGE('',*,*,#639,.F.);
#641=CARTESIAN_POINT('',(54.9,12.65,0.1));
#642=VERTEX_POINT('',#641);
#643=CARTESIAN_POINT('',(-246.5,12.65,0.1));
#644=DIRECTION('',(1.,0.,-0.));
#645=VECTOR('',#644,548.);
#646=LINE('',#643,#645);
#647=EDGE_CURVE('',#634,#642,#646,.T.);
#648=ORIENTED_EDGE('',*,*,#647,.T.);
#649=CARTESIAN_POINT('',(54.9,12.65,0.1));
#650=DIRECTION('',(0.577350269,-0.577350269,-0.577350269));
#651=VECTOR('',#650,0.507305936);
#652=LINE('',#649,#651);
#653=EDGE_CURVE('',#642,#269,#652,.T.);
#654=ORIENTED_EDGE('',*,*,#653,.T.);
#655=EDGE_LOOP('',(#628,#629,#630,#631,#632,#640,#648,#654));
#656=FACE_BOUND('',#655,.T.);
#657=ADVANCED_FACE('',(#656),#627,.T.);
#658=CARTESIAN_POINT('',(0.05,12.6,0.));
#659=DIRECTION('',(-0.707106781,0.707106781,0.));
#660=DIRECTION('',(0.,0.,1.));
#661=AXIS2_PLACEMENT_3D('',#658,#659,#660);
#662=PLANE('',#661);
#663=ORIENTED_EDGE('',*,*,#435,.F.);
#664=CARTESIAN_POINT('',(0.1,12.65,12.55));
#665=VERTEX_POINT('',#664);
#666=CARTESIAN_POINT('',(0.707106781,13.257106781,11.942893219));
#667=DIRECTION('',(0.577350269,0.577350269,-0.577350269));
#668=VECTOR('',#667,0.507305936);
#669=LINE('',#666,#668);
#670=EDGE_CURVE('',#422,#665,#669,.T.);
#671=ORIENTED_EDGE('',*,*,#670,.T.);
#672=CARTESIAN_POINT('',(0.1,12.65,125.5));
#673=DIRECTION('',(0.,0.,-1.));
#674=VECTOR('',#673,124.5);
#675=LINE('',#672,#674);
#676=EDGE_CURVE('',#665,#634,#675,.T.);
#677=ORIENTED_EDGE('',*,*,#676,.T.);
#678=ORIENTED_EDGE('',*,*,#639,.T.);
#679=EDGE_LOOP('',(#663,#671,#677,#678));
#680=FACE_BOUND('',#679,.T.);
#681=ADVANCED_FACE('',(#680),#662,.T.);
#682=CARTESIAN_POINT('',(55.,6.325,0.));
#683=DIRECTION('',(1.,0.,0.));
#684=DIRECTION('',(0.,1.,0.));
#685=AXIS2_PLACEMENT_3D('',#682,#683,#684);
#686=PLANE('',#685);
#687=ORIENTED_EDGE('',*,*,#226,.F.);
#688=ORIENTED_EDGE('',*,*,#265,.F.);
#689=ORIENTED_EDGE('',*,*,#317,.F.);
#690=ORIENTED_EDGE('',*,*,#340,.F.);
#691=EDGE_LOOP('',(#687,#688,#689,#690));
#692=FACE_BOUND('',#691,.T.);
#693=ADVANCED_FACE('',(#692),#686,.T.);
#694=CARTESIAN_POINT('',(27.5,0.,0.));
#695=DIRECTION('',(0.,-1.,0.));
#696=DIRECTION('',(1.,0.,0.));
#697=AXIS2_PLACEMENT_3D('',#694,#695,#696);
#698=PLANE('',#697);
#699=ORIENTED_EDGE('',*,*,#47,.T.);
#700=EDGE_LOOP('',(#699));
#701=FACE_BOUND('',#700,.T.);
#702=ORIENTED_EDGE('',*,*,#89,.T.);
#703=EDGE_LOOP('',(#702));
#704=FACE_BOUND('',#703,.T.);
#705=ORIENTED_EDGE('',*,*,#333,.F.);
#706=ORIENTED_EDGE('',*,*,#547,.F.);
#707=ORIENTED_EDGE('',*,*,#532,.F.);
#708=ORIENTED_EDGE('',*,*,#510,.F.);
#709=EDGE_LOOP('',(#705,#706,#707,#708));
#710=FACE_BOUND('',#709,.T.);
#711=ADVANCED_FACE('',(#701,#704,#710),#698,.T.);
#712=CARTESIAN_POINT('',(0.,6.325,0.));
#713=DIRECTION('',(-1.,0.,0.));
#714=DIRECTION('',(-0.,-1.,0.));
#715=AXIS2_PLACEMENT_3D('',#712,#713,#714);
#716=PLANE('',#715);
#717=ORIENTED_EDGE('',*,*,#396,.F.);
#718=ORIENTED_EDGE('',*,*,#457,.F.);
#719=ORIENTED_EDGE('',*,*,#487,.F.);
#720=ORIENTED_EDGE('',*,*,#525,.F.);
#721=EDGE_LOOP('',(#717,#718,#719,#720));
#722=FACE_BOUND('',#721,.T.);
#723=ADVANCED_FACE('',(#722),#716,.T.);
#724=CARTESIAN_POINT('',(54.95,12.6,0.));
#725=DIRECTION('',(0.707106781,0.707106781,0.));
#726=DIRECTION('',(0.,0.,-1.));
#727=AXIS2_PLACEMENT_3D('',#724,#725,#726);
#728=PLANE('',#727);
#729=ORIENTED_EDGE('',*,*,#282,.F.);
#730=ORIENTED_EDGE('',*,*,#653,.F.);
#731=CARTESIAN_POINT('',(54.9,12.65,12.55));
#732=VERTEX_POINT('',#731);
#733=CARTESIAN_POINT('',(54.9,12.65,1.));
#734=DIRECTION('',(0.,0.,1.));
#735=VECTOR('',#734,124.5);
#736=LINE('',#733,#735);
#737=EDGE_CURVE('',#642,#732,#736,.T.);
#738=ORIENTED_EDGE('',*,*,#737,.T.);
#739=CARTESIAN_POINT('',(54.9,12.65,12.55));
#740=DIRECTION('',(0.577350269,-0.577350269,0.577350269));
#741=VECTOR('',#740,0.507305936);
#742=LINE('',#739,#741);
#743=EDGE_CURVE('',#732,#277,#742,.T.);
#744=ORIENTED_EDGE('',*,*,#743,.T.);
#745=EDGE_LOOP('',(#729,#730,#738,#744));
#746=FACE_BOUND('',#745,.T.);
#747=ADVANCED_FACE('',(#746),#728,.T.);
#748=CARTESIAN_POINT('',(27.5,12.6,12.6));
#749=DIRECTION('',(0.,0.707106781,0.707106781));
#750=DIRECTION('',(1.,0.,0.));
#751=AXIS2_PLACEMENT_3D('',#748,#749,#750);
#752=PLANE('',#751);
#753=ORIENTED_EDGE('',*,*,#288,.F.);
#754=ORIENTED_EDGE('',*,*,#743,.F.);
#755=CARTESIAN_POINT('',(301.5,12.65,12.55));
#756=DIRECTION('',(-1.,0.,0.));
#757=VECTOR('',#756,548.);
#758=LINE('',#755,#757);
#759=EDGE_CURVE('',#732,#665,#758,.T.);
#760=ORIENTED_EDGE('',*,*,#759,.T.);
#761=ORIENTED_EDGE('',*,*,#670,.F.);
#762=ORIENTED_EDGE('',*,*,#427,.F.);
#763=ORIENTED_EDGE('',*,*,#411,.F.);
#764=CARTESIAN_POINT('',(-246.5,12.55,12.65));
#765=DIRECTION('',(1.,0.,-0.));
#766=VECTOR('',#765,548.);
#767=LINE('',#764,#766);
#768=EDGE_CURVE('',#400,#299,#767,.T.);
#769=ORIENTED_EDGE('',*,*,#768,.T.);
#770=ORIENTED_EDGE('',*,*,#304,.F.);
#771=EDGE_LOOP('',(#753,#754,#760,#761,#762,#763,#769,#770));
#772=FACE_BOUND('',#771,.T.);
#773=ADVANCED_FACE('',(#772),#752,.T.);
#774=CARTESIAN_POINT('',(27.5,6.325,12.65));
#775=DIRECTION('',(0.,0.,1.));
#776=DIRECTION('',(1.,0.,0.));
#777=AXIS2_PLACEMENT_3D('',#774,#775,#776);
#778=PLANE('',#777);
#779=ORIENTED_EDGE('',*,*,#310,.F.);
#780=ORIENTED_EDGE('',*,*,#768,.F.);
#781=ORIENTED_EDGE('',*,*,#405,.F.);
#782=ORIENTED_EDGE('',*,*,#554,.F.);
#783=EDGE_LOOP('',(#779,#780,#781,#782));
#784=FACE_BOUND('',#783,.T.);
#785=CARTESIAN_POINT('',(26.571030641,5.147283596,12.65));
#786=VERTEX_POINT('',#785);
#787=CARTESIAN_POINT('',(28.428969359,5.147283596,12.65));
#788=VERTEX_POINT('',#787);
#789=CARTESIAN_POINT('',(27.5,6.325,12.65));
#790=DIRECTION('',(0.,0.,1.));
#791=DIRECTION('',(1.,0.,-0.));
#792=AXIS2_PLACEMENT_3D('',#789,#790,#791);
#793=CIRCLE('',#792,1.5);
#794=EDGE_CURVE('',#786,#788,#793,.T.);
#795=ORIENTED_EDGE('',*,*,#794,.F.);
#796=CARTESIAN_POINT('',(21.,6.325,12.65));
#797=VERTEX_POINT('',#796);
#798=CARTESIAN_POINT('',(23.91,6.325,12.65));
#799=DIRECTION('',(0.,0.,1.));
#800=DIRECTION('',(1.,0.,-0.));
#801=AXIS2_PLACEMENT_3D('',#798,#799,#800);
#802=CIRCLE('',#801,2.91);
#803=EDGE_CURVE('',#797,#786,#802,.T.);
#804=ORIENTED_EDGE('',*,*,#803,.F.);
#805=CARTESIAN_POINT('',(26.571030641,7.502716404,12.65));
#806=VERTEX_POINT('',#805);
#807=CARTESIAN_POINT('',(23.91,6.325,12.65));
#808=DIRECTION('',(0.,0.,1.));
#809=DIRECTION('',(1.,0.,-0.));
#810=AXIS2_PLACEMENT_3D('',#807,#808,#809);
#811=CIRCLE('',#810,2.91);
#812=EDGE_CURVE('',#806,#797,#811,.T.);
#813=ORIENTED_EDGE('',*,*,#812,.F.);
#814=CARTESIAN_POINT('',(28.428969359,7.502716404,12.65));
#815=VERTEX_POINT('',#814);
#816=CARTESIAN_POINT('',(27.5,6.325,12.65));
#817=DIRECTION('',(0.,0.,1.));
#818=DIRECTION('',(1.,0.,-0.));
#819=AXIS2_PLACEMENT_3D('',#816,#817,#818);
#820=CIRCLE('',#819,1.5);
#821=EDGE_CURVE('',#815,#806,#820,.T.);
#822=ORIENTED_EDGE('',*,*,#821,.F.);
#823=CARTESIAN_POINT('',(31.09,6.325,12.65));
#824=DIRECTION('',(0.,0.,1.));
#825=DIRECTION('',(1.,0.,-0.));
#826=AXIS2_PLACEMENT_3D('',#823,#824,#825);
#827=CIRCLE('',#826,2.91);
#828=EDGE_CURVE('',#788,#815,#827,.T.);
#829=ORIENTED_EDGE('',*,*,#828,.F.);
#830=EDGE_LOOP('',(#795,#804,#813,#822,#829));
#831=FACE_BOUND('',#830,.T.);
#832=ADVANCED_FACE('',(#784,#831),#778,.T.);
#833=CARTESIAN_POINT('',(27.5,12.65,0.));
#834=DIRECTION('',(0.,1.,0.));
#835=DIRECTION('',(-1.,0.,0.));
#836=AXIS2_PLACEMENT_3D('',#833,#834,#835);
#837=PLANE('',#836);
#838=ORIENTED_EDGE('',*,*,#57,.T.);
#839=ORIENTED_EDGE('',*,*,#64,.T.);
#840=EDGE_LOOP('',(#838,#839));
#841=FACE_BOUND('',#840,.T.);
#842=ORIENTED_EDGE('',*,*,#99,.T.);
#843=ORIENTED_EDGE('',*,*,#106,.T.);
#844=EDGE_LOOP('',(#842,#843));
#845=FACE_BOUND('',#844,.T.);
#846=ORIENTED_EDGE('',*,*,#676,.F.);
#847=ORIENTED_EDGE('',*,*,#759,.F.);
#848=ORIENTED_EDGE('',*,*,#737,.F.);
#849=ORIENTED_EDGE('',*,*,#647,.F.);
#850=EDGE_LOOP('',(#846,#847,#848,#849));
#851=FACE_BOUND('',#850,.T.);
#852=ADVANCED_FACE('',(#841,#845,#851),#837,.T.);
#853=CARTESIAN_POINT('',(27.5,6.325,0.));
#854=DIRECTION('',(0.,0.,1.));
#855=DIRECTION('',(1.,0.,-0.));
#856=AXIS2_PLACEMENT_3D('',#853,#854,#855);
#857=CYLINDRICAL_SURFACE('',#856,1.5);
#858=ORIENTED_EDGE('',*,*,#794,.T.);
#859=CARTESIAN_POINT('',(28.428969359,5.147283596,0.));
#860=DIRECTION('',(0.,0.,1.));
#861=VECTOR('',#860,126.5);
#862=LINE('',#859,#861);
#863=EDGE_CURVE('',#585,#788,#862,.T.);
#864=ORIENTED_EDGE('',*,*,#863,.F.);
#865=ORIENTED_EDGE('',*,*,#591,.F.);
#866=CARTESIAN_POINT('',(26.571030641,5.147283596,0.));
#867=DIRECTION('',(0.,0.,1.));
#868=VECTOR('',#867,126.5);
#869=LINE('',#866,#868);
#870=EDGE_CURVE('',#576,#786,#869,.T.);
#871=ORIENTED_EDGE('',*,*,#870,.T.);
#872=EDGE_LOOP('',(#858,#864,#865,#871));
#873=FACE_BOUND('',#872,.T.);
#874=ADVANCED_FACE('',(#873),#857,.F.);
#875=CARTESIAN_POINT('',(31.09,6.325,0.));
#876=DIRECTION('',(0.,0.,1.));
#877=DIRECTION('',(1.,0.,-0.));
#878=AXIS2_PLACEMENT_3D('',#875,#876,#877);
#879=CYLINDRICAL_SURFACE('',#878,2.91);
#880=ORIENTED_EDGE('',*,*,#828,.T.);
#881=CARTESIAN_POINT('',(28.428969359,7.502716404,0.));
#882=DIRECTION('',(0.,0.,1.));
#883=VECTOR('',#882,126.5);
#884=LINE('',#881,#883);
#885=EDGE_CURVE('',#594,#815,#884,.T.);
#886=ORIENTED_EDGE('',*,*,#885,.F.);
#887=ORIENTED_EDGE('',*,*,#600,.F.);
#888=ORIENTED_EDGE('',*,*,#863,.T.);
#889=EDGE_LOOP('',(#880,#886,#887,#888));
#890=FACE_BOUND('',#889,.T.);
#891=ADVANCED_FACE('',(#890),#879,.F.);
#892=CARTESIAN_POINT('',(27.5,6.325,0.));
#893=DIRECTION('',(0.,0.,1.));
#894=DIRECTION('',(1.,0.,-0.));
#895=AXIS2_PLACEMENT_3D('',#892,#893,#894);
#896=CYLINDRICAL_SURFACE('',#895,1.5);
#897=ORIENTED_EDGE('',*,*,#821,.T.);
#898=CARTESIAN_POINT('',(26.571030641,7.502716404,0.));
#899=DIRECTION('',(0.,0.,1.));
#900=VECTOR('',#899,126.5);
#901=LINE('',#898,#900);
#902=EDGE_CURVE('',#565,#806,#901,.T.);
#903=ORIENTED_EDGE('',*,*,#902,.F.);
#904=ORIENTED_EDGE('',*,*,#607,.F.);
#905=ORIENTED_EDGE('',*,*,#885,.T.);
#906=EDGE_LOOP('',(#897,#903,#904,#905));
#907=FACE_BOUND('',#906,.T.);
#908=ADVANCED_FACE('',(#907),#896,.F.);
#909=CARTESIAN_POINT('',(23.91,6.325,0.));
#910=DIRECTION('',(0.,0.,1.));
#911=DIRECTION('',(1.,0.,-0.));
#912=AXIS2_PLACEMENT_3D('',#909,#910,#911);
#913=CYLINDRICAL_SURFACE('',#912,2.91);
#914=CARTESIAN_POINT('',(21.,6.325,12.65));
#915=DIRECTION('',(-0.,-0.,-1.));
#916=VECTOR('',#915,12.65);
#917=LINE('',#914,#916);
#918=EDGE_CURVE('',#797,#567,#917,.T.);
#919=ORIENTED_EDGE('',*,*,#918,.F.);
#920=ORIENTED_EDGE('',*,*,#803,.T.);
#921=ORIENTED_EDGE('',*,*,#870,.F.);
#922=ORIENTED_EDGE('',*,*,#582,.F.);
#923=EDGE_LOOP('',(#919,#920,#921,#922));
#924=FACE_BOUND('',#923,.T.);
#925=ADVANCED_FACE('',(#924),#913,.F.);
#926=CARTESIAN_POINT('',(23.91,6.325,0.));
#927=DIRECTION('',(0.,0.,1.));
#928=DIRECTION('',(1.,0.,-0.));
#929=AXIS2_PLACEMENT_3D('',#926,#927,#928);
#930=CYLINDRICAL_SURFACE('',#929,2.91);
#931=ORIENTED_EDGE('',*,*,#918,.T.);
#932=ORIENTED_EDGE('',*,*,#573,.F.);
#933=ORIENTED_EDGE('',*,*,#902,.T.);
#934=ORIENTED_EDGE('',*,*,#812,.T.);
#935=EDGE_LOOP('',(#931,#932,#933,#934));
#936=FACE_BOUND('',#935,.T.);
#937=ADVANCED_FACE('',(#936),#930,.F.);
#938=CLOSED_SHELL('',(#68,#110,#142,#174,#206,#245,#292,#322,#344,#376,#415,#462,#492,#514,#536,#558,#622,#657,#681,#693,#711,#723,#747,#773,#832,#852,
#874,#891,#908,#925,#937));
#939=MANIFOLD_SOLID_BREP('ATTRIB_TEXTURED_THREADS_PRESENT',#938);
#940=COLOUR_RGB('',0.882352948,0.882352948,0.882352948);
#941=FILL_AREA_STYLE_COLOUR('',#940);
#942=FILL_AREA_STYLE('',(#941));
#943=SURFACE_STYLE_FILL_AREA(#942);
#944=SURFACE_SIDE_STYLE('',(#943));
#945=SURFACE_STYLE_USAGE(.BOTH.,#944);
#946=PRESENTATION_STYLE_ASSIGNMENT((#945));
#26=STYLED_ITEM('',(#946),#939);
#16=SHAPE_REPRESENTATION('3135_0',(#15),#10);
#17=ADVANCED_BREP_SHAPE_REPRESENTATION('3135_0',(#939),#10);
#954=SHAPE_REPRESENTATION_RELATIONSHIP('','',#16,#17);
#955=CARTESIAN_POINT('',(0.,0.,0.));
#956=DIRECTION('',(0.,0.,1.));
#957=DIRECTION('',(1.,0.,0.));
#958=AXIS2_PLACEMENT_3D('',#955,#956,#957);
#960=MAPPED_ITEM('',#959,#958);
#959=REPRESENTATION_MAP(#958,#16);
#961=APPLICATION_CONTEXT('Managed model based 3d engineering');
#962=APPLICATION_PROTOCOL_DEFINITION('international standard','ap242_managed_model_based_3d_engineering',2013,#961);
#963=PRODUCT_CONTEXT('',#961,'mechanical');
#964=PRODUCT_DEFINITION_CONTEXT('part definition',#961,'design');
#24=PRODUCT('3135_0','3135_0','',(#963));
#965=PRODUCT_RELATED_PRODUCT_CATEGORY('part','',(#24));
#966=PRODUCT_DEFINITION_FORMATION_WITH_SPECIFIED_SOURCE('','',#24,.NOT_KNOWN.);
#25=PRODUCT_DEFINITION('design','',#966,#964);
#23=PRODUCT_DEFINITION_SHAPE('','',#25);
#967=SHAPE_DEFINITION_REPRESENTATION(#23,#16);
#11=DRAUGHTING_MODEL('',(#960),#10);
#1=MECHANICAL_DESIGN_GEOMETRIC_PRESENTATION_REPRESENTATION('',(#26),#10);
ENDSEC;
END-ISO-10303-21;
